<svg width="166" height="43" viewBox="0 0 166 43" fill="none" xmlns="http://www.w3.org/2000/svg">
<path d="M30.8651 23.5603C30.8737 24.4407 30.5861 24.9573 29.8229 25.3903C26.6024 27.2288 23.416 29.1338 20.2097 30.9955C18.9084 31.7517 18.5155 31.5237 18.5098 30.0199C18.4955 26.2706 18.4813 22.5213 18.5212 18.7691C18.5326 17.8888 18.2564 17.3577 17.4818 16.9392C15.9527 16.0155 14.1104 14.8899 12.3079 13.8191C12.3079 9.5675 12.3051 5.6277 12.3079 1.69082C12.3108 -0.205487 12.6382 -0.393097 14.2755 0.565163C19.4096 3.564 24.5323 6.586 29.6806 9.556C30.5206 10.0409 30.8879 10.572 30.8708 11.588C30.811 15.5797 30.8253 19.5686 30.8651 23.5603Z" fill="#00AF74"/>
<path d="M12.3696 15.6907C12.3667 24.1996 12.3696 32.7084 12.3639 41.2201C12.3639 43.2463 12.0934 43.4079 10.382 42.3804C7.28108 40.5216 4.20292 38.6224 1.08205 36.8012C0.273361 36.3278 0 35.7765 0 34.8443C0.0313226 26.1421 0.017085 17.4398 0.0227801 8.73762C0.0227801 7.03182 0.350243 6.84712 1.84234 7.71592C5.24796 9.69012 8.64219 11.6817 12.3069 13.8204C12.324 14.2332 12.3724 15.1943 12.3696 15.6907Z" fill="#17462E"/>
<path d="M58.0758 21.2541C59.5311 21.5254 60.7275 22.2531 61.6648 23.4371C62.6021 24.6211 63.0708 25.9778 63.0708 27.5071C63.0708 28.8884 62.7255 30.1094 62.0348 31.1701C61.3688 32.2061 60.3945 33.0201 59.1118 33.6121C57.8291 34.2041 56.3121 34.5001 54.5608 34.5001H43.4238V8.67412H54.0798C55.8311 8.67412 57.3358 8.95782 58.5938 9.52512C59.8765 10.0924 60.8385 10.8818 61.4798 11.8931C62.1458 12.9044 62.4788 14.0514 62.4788 15.3341C62.4788 16.8388 62.0718 18.0968 61.2578 19.1081C60.4685 20.1194 59.4078 20.8348 58.0758 21.2541ZM48.6038 19.3301H53.3398C54.5731 19.3301 55.5228 19.0588 56.1888 18.5161C56.8548 17.9488 57.1878 17.1471 57.1878 16.1111C57.1878 15.0751 56.8548 14.2734 56.1888 13.7061C55.5228 13.1388 54.5731 12.8551 53.3398 12.8551H48.6038V19.3301ZM53.8208 30.2821C55.0788 30.2821 56.0531 29.9861 56.7438 29.3941C57.4591 28.8021 57.8168 27.9634 57.8168 26.8781C57.8168 25.7681 57.4468 24.9048 56.7068 24.2881C55.9668 23.6468 54.9678 23.3261 53.7098 23.3261H48.6038V30.2821H53.8208ZM76.3012 34.8331C74.3279 34.8331 72.5519 34.4014 70.9732 33.5381C69.3945 32.6501 68.1489 31.4044 67.2362 29.8011C66.3482 28.1978 65.9042 26.3478 65.9042 24.2511C65.9042 22.1544 66.3605 20.3044 67.2732 18.7011C68.2105 17.0978 69.4809 15.8644 71.0842 15.0011C72.6875 14.1131 74.4759 13.6691 76.4492 13.6691C78.4225 13.6691 80.2109 14.1131 81.8142 15.0011C83.4175 15.8644 84.6755 17.0978 85.5882 18.7011C86.5255 20.3044 86.9942 22.1544 86.9942 24.2511C86.9942 26.3478 86.5132 28.1978 85.5512 29.8011C84.6139 31.4044 83.3312 32.6501 81.7032 33.5381C80.0999 34.4014 78.2992 34.8331 76.3012 34.8331ZM76.3012 30.3191C77.2385 30.3191 78.1142 30.0971 78.9282 29.6531C79.7669 29.1844 80.4329 28.4938 80.9262 27.5811C81.4195 26.6684 81.6662 25.5584 81.6662 24.2511C81.6662 22.3024 81.1482 20.8101 80.1122 19.7741C79.1009 18.7134 77.8552 18.1831 76.3752 18.1831C74.8952 18.1831 73.6495 18.7134 72.6382 19.7741C71.6515 20.8101 71.1582 22.3024 71.1582 24.2511C71.1582 26.1998 71.6392 27.7044 72.6012 28.7651C73.5879 29.8011 74.8212 30.3191 76.3012 30.3191ZM95.9739 17.1841C96.6399 16.0988 97.5032 15.2478 98.5639 14.6311C99.6492 14.0144 100.883 13.7061 102.264 13.7061V19.1451H100.895C99.2669 19.1451 98.0336 19.5274 97.1949 20.2921C96.3809 21.0568 95.9739 22.3888 95.9739 24.2881V34.5001H90.7939V14.0021H95.9739V17.1841ZM104.421 24.1771C104.421 22.1051 104.828 20.2674 105.642 18.6641C106.481 17.0608 107.616 15.8274 109.046 14.9641C110.477 14.1008 112.068 13.6691 113.819 13.6691C115.151 13.6691 116.422 13.9651 117.63 14.5571C118.839 15.1244 119.801 15.8891 120.516 16.8511V7.12012H125.77V34.5001H120.516V31.4661C119.875 32.4774 118.975 33.2914 117.815 33.9081C116.656 34.5248 115.312 34.8331 113.782 34.8331C112.056 34.8331 110.477 34.3891 109.046 33.5011C107.616 32.6131 106.481 31.3674 105.642 29.7641C104.828 28.1361 104.421 26.2738 104.421 24.1771ZM120.553 24.2511C120.553 22.9931 120.307 21.9201 119.813 21.0321C119.32 20.1194 118.654 19.4288 117.815 18.9601C116.977 18.4668 116.076 18.2201 115.114 18.2201C114.152 18.2201 113.264 18.4544 112.45 18.9231C111.636 19.3918 110.97 20.0824 110.452 20.9951C109.959 21.8831 109.712 22.9438 109.712 24.1771C109.712 25.4104 109.959 26.4958 110.452 27.4331C110.97 28.3458 111.636 29.0488 112.45 29.5421C113.289 30.0354 114.177 30.2821 115.114 30.2821C116.076 30.2821 116.977 30.0478 117.815 29.5791C118.654 29.0858 119.32 28.3951 119.813 27.5071C120.307 26.5944 120.553 25.5091 120.553 24.2511ZM149.884 23.8071C149.884 24.5471 149.835 25.2131 149.736 25.8051H134.751C134.875 27.2851 135.393 28.4444 136.305 29.2831C137.218 30.1218 138.34 30.5411 139.672 30.5411C141.596 30.5411 142.965 29.7148 143.779 28.0621H149.366C148.774 30.0354 147.64 31.6634 145.962 32.9461C144.285 34.2041 142.225 34.8331 139.783 34.8331C137.81 34.8331 136.034 34.4014 134.455 33.5381C132.901 32.6501 131.68 31.4044 130.792 29.8011C129.929 28.1978 129.497 26.3478 129.497 24.2511C129.497 22.1298 129.929 20.2674 130.792 18.6641C131.656 17.0608 132.864 15.8274 134.418 14.9641C135.972 14.1008 137.761 13.6691 139.783 13.6691C141.732 13.6691 143.471 14.0884 145 14.9271C146.554 15.7658 147.751 16.9621 148.589 18.5161C149.453 20.0454 149.884 21.8091 149.884 23.8071ZM144.519 22.3271C144.495 20.9951 144.014 19.9344 143.076 19.1451C142.139 18.3311 140.992 17.9241 139.635 17.9241C138.353 17.9241 137.267 18.3188 136.379 19.1081C135.516 19.8728 134.986 20.9458 134.788 22.3271H144.519ZM158.845 17.1841C159.511 16.0988 160.375 15.2478 161.435 14.6311C162.521 14.0144 163.754 13.7061 165.135 13.7061V19.1451H163.766C162.138 19.1451 160.905 19.5274 160.066 20.2921C159.252 21.0568 158.845 22.3888 158.845 24.2881V34.5001H153.665V14.0021H158.845V17.1841Z" fill="#050D1E"/>
</svg>
